<svg width="21" height="20" viewBox="0 0 21 20" fill="none" xmlns="http://www.w3.org/2000/svg">
<path d="M7.32118 6.47936C7.32118 4.72388 8.74427 3.30078 10.4997 3.30078C12.2552 3.30078 13.6783 4.72388 13.6783 6.47936C13.6783 8.23484 12.2552 9.65793 10.4997 9.65793C8.74427 9.65793 7.32118 8.23484 7.32118 6.47936Z" fill="#70737C" fill-opacity="0.8"/>
<path d="M10.4997 11.0638C8.82954 11.0638 7.271 11.3907 6.10484 12.0189C4.93951 12.6466 4.07032 13.64 4.07032 14.9648L4.07031 15.2015C4.07029 15.3363 4.07027 15.4736 4.07986 15.591C4.09053 15.7215 4.11623 15.8835 4.20024 16.0484C4.31453 16.2727 4.49689 16.455 4.72118 16.5693C4.88607 16.6533 5.04807 16.679 5.17863 16.6897C5.29598 16.6993 5.43326 16.6992 5.5681 16.6992L15.4314 16.6986C15.5663 16.6986 15.7035 16.6986 15.8209 16.6891C15.9514 16.6784 16.1134 16.6527 16.2783 16.5687C16.5025 16.4544 16.6849 16.272 16.7991 16.0478C16.8831 15.8829 16.9088 15.7209 16.9195 15.5903C16.9291 15.473 16.9291 15.3357 16.9291 15.2009L16.9291 14.9648C16.9291 13.64 16.0599 12.6466 14.8945 12.0189C13.7284 11.3907 12.1698 11.0638 10.4997 11.0638Z" fill="#70737C" fill-opacity="0.8"/>
</svg>
