<svg width="15" height="16" viewBox="0 0 15 16" fill="none" xmlns="http://www.w3.org/2000/svg">
<path d="M12.8906 10.4088L7.49994 13.5523L2.10932 10.4088C2.00258 10.3556 1.87961 10.3451 1.76543 10.3795C1.65125 10.4138 1.55444 10.4904 1.49471 10.5935C1.43498 10.6967 1.41681 10.8188 1.44391 10.9349C1.471 11.051 1.54133 11.1524 1.64057 11.2185L7.26557 14.4998C7.33724 14.5416 7.41873 14.5636 7.5017 14.5636C7.58467 14.5636 7.66616 14.5416 7.73783 14.4998L13.3628 11.2185C13.4169 11.188 13.4643 11.147 13.5023 11.0979C13.5404 11.0489 13.5683 10.9928 13.5845 10.9329C13.6007 10.8729 13.6048 10.8104 13.5967 10.7488C13.5885 10.6873 13.5682 10.628 13.5369 10.5744C13.5057 10.5208 13.464 10.4739 13.4145 10.4365C13.365 10.3991 13.3085 10.3719 13.2484 10.3565C13.1882 10.3411 13.1256 10.3377 13.0642 10.3467C13.0028 10.3557 12.9438 10.3768 12.8906 10.4088Z" fill="#3A3A3A"/>
<path d="M12.8906 7.59626L7.49994 10.7398L2.10932 7.59626C2.00258 7.54312 1.87961 7.53265 1.76543 7.56697C1.65125 7.6013 1.55444 7.67785 1.49471 7.78104C1.43498 7.88423 1.41681 8.0063 1.44391 8.12241C1.471 8.23852 1.54133 8.33994 1.64057 8.40603L7.26556 11.6873C7.33724 11.7291 7.41873 11.7511 7.5017 11.7511C7.58467 11.7511 7.66616 11.7291 7.73783 11.6873L13.3628 8.40603C13.4169 8.37546 13.4643 8.33447 13.5023 8.28542C13.5404 8.23638 13.5683 8.18027 13.5845 8.12035C13.6007 8.06043 13.6048 7.99788 13.5967 7.93635C13.5885 7.87481 13.5682 7.81552 13.5369 7.76189C13.5057 7.70827 13.464 7.6614 13.4145 7.62399C13.365 7.58658 13.3085 7.55938 13.2484 7.54397C13.1882 7.52856 13.1256 7.52525 13.0642 7.53422C13.0028 7.5432 12.9438 7.56429 12.8906 7.59626Z" fill="#3A3A3A"/>
<path d="M1.64074 5.59331L7.26574 8.87456C7.33742 8.91636 7.4189 8.93838 7.50187 8.93838C7.58484 8.93838 7.66633 8.91636 7.73801 8.87456L13.363 5.59331C13.4338 5.55203 13.4925 5.49292 13.5333 5.42188C13.5741 5.35084 13.5955 5.27035 13.5955 5.18843C13.5955 5.10651 13.5741 5.02602 13.5333 4.95498C13.4925 4.88394 13.4338 4.82483 13.363 4.78355L7.73801 1.5023C7.66633 1.4605 7.58484 1.43848 7.50187 1.43848C7.4189 1.43848 7.33742 1.4605 7.26574 1.5023L1.64074 4.78355C1.56998 4.82483 1.51127 4.88394 1.47047 4.95498C1.42967 5.02602 1.4082 5.10651 1.4082 5.18843C1.4082 5.27035 1.42967 5.35084 1.47047 5.42188C1.51127 5.49292 1.56998 5.55203 1.64074 5.59331Z" fill="#3A3A3A"/>
</svg>
