<svg width="15" height="16" viewBox="0 0 15 16" fill="none" xmlns="http://www.w3.org/2000/svg">
<path d="M12.8911 10.4088L7.50043 13.5523L2.1098 10.4088C2.00307 10.3556 1.8801 10.3451 1.76592 10.3795C1.65174 10.4138 1.55493 10.4904 1.4952 10.5935C1.43547 10.6967 1.4173 10.8188 1.4444 10.9349C1.47149 11.051 1.54182 11.1524 1.64105 11.2185L7.26605 14.4998C7.33773 14.5416 7.41921 14.5636 7.50219 14.5636C7.58516 14.5636 7.66664 14.5416 7.73832 14.4998L13.3633 11.2185C13.4173 11.188 13.4648 11.147 13.5028 11.0979C13.5409 11.0489 13.5688 10.9928 13.585 10.9329C13.6012 10.8729 13.6053 10.8104 13.5972 10.7488C13.589 10.6873 13.5687 10.628 13.5374 10.5744C13.5061 10.5208 13.4645 10.4739 13.415 10.4365C13.3655 10.3991 13.309 10.3719 13.2489 10.3565C13.1887 10.3411 13.1261 10.3377 13.0647 10.3467C13.0033 10.3557 12.9443 10.3768 12.8911 10.4088Z" fill="#0066FF"/>
<path d="M12.8911 7.59626L7.50043 10.7398L2.1098 7.59626C2.00307 7.54312 1.8801 7.53265 1.76592 7.56697C1.65174 7.6013 1.55493 7.67785 1.4952 7.78104C1.43547 7.88423 1.4173 8.0063 1.4444 8.12241C1.47149 8.23852 1.54182 8.33994 1.64105 8.40603L7.26605 11.6873C7.33773 11.7291 7.41921 11.7511 7.50219 11.7511C7.58516 11.7511 7.66664 11.7291 7.73832 11.6873L13.3633 8.40603C13.4173 8.37546 13.4648 8.33447 13.5028 8.28542C13.5409 8.23638 13.5688 8.18027 13.585 8.12035C13.6012 8.06043 13.6053 7.99788 13.5972 7.93635C13.589 7.87481 13.5687 7.81552 13.5374 7.76189C13.5061 7.70827 13.4645 7.6614 13.415 7.62399C13.3655 7.58658 13.309 7.55938 13.2489 7.54397C13.1887 7.52856 13.1261 7.52525 13.0647 7.53422C13.0033 7.5432 12.9443 7.56429 12.8911 7.59626Z" fill="#0066FF"/>
<path d="M1.64123 5.59331L7.26623 8.87456C7.3379 8.91636 7.41939 8.93838 7.50236 8.93838C7.58533 8.93838 7.66682 8.91636 7.73849 8.87456L13.3635 5.59331C13.4343 5.55203 13.493 5.49292 13.5338 5.42188C13.5746 5.35084 13.596 5.27035 13.596 5.18843C13.596 5.10651 13.5746 5.02602 13.5338 4.95498C13.493 4.88394 13.4343 4.82483 13.3635 4.78355L7.73849 1.5023C7.66682 1.4605 7.58533 1.43848 7.50236 1.43848C7.41939 1.43848 7.3379 1.4605 7.26623 1.5023L1.64123 4.78355C1.57047 4.82483 1.51176 4.88394 1.47096 4.95498C1.43016 5.02602 1.40869 5.10651 1.40869 5.18843C1.40869 5.27035 1.43016 5.35084 1.47096 5.42188C1.51176 5.49292 1.57047 5.55203 1.64123 5.59331Z" fill="#0066FF"/>
</svg>
