<svg width="23" height="22" viewBox="0 0 23 22" fill="none" xmlns="http://www.w3.org/2000/svg">
<g clip-path="url(#clip0_99_632)">
<path d="M10.6532 1.69187V0.845693C10.6532 0.621272 10.7424 0.406042 10.901 0.247352C11.0597 0.0886627 11.275 -0.000488281 11.4994 -0.000488281C11.7238 -0.000488281 11.939 0.0886627 12.0977 0.247352C12.2564 0.406042 12.3456 0.621272 12.3456 0.845693V1.69187C12.3456 1.9163 12.2564 2.13153 12.0977 2.29022C11.939 2.4489 11.7238 2.53806 11.4994 2.53806C11.275 2.53806 11.0597 2.4489 10.901 2.29022C10.7424 2.13153 10.6532 1.9163 10.6532 1.69187ZM11.4994 4.23042C10.1605 4.23042 8.85171 4.62744 7.73848 5.37128C6.62525 6.11511 5.75759 7.17236 5.24522 8.40931C4.73286 9.64627 4.5988 11.0074 4.86 12.3205C5.1212 13.6337 5.76593 14.8399 6.71266 15.7866C7.65938 16.7333 8.86558 17.378 10.1787 17.6392C11.4919 17.9004 12.853 17.7664 14.0899 17.254C15.3269 16.7417 16.3841 15.874 17.128 14.7608C17.8718 13.6475 18.2688 12.3387 18.2688 10.9999C18.2669 9.2051 17.553 7.4844 16.2839 6.21531C15.0148 4.94622 13.2942 4.23238 11.4994 4.23042ZM4.13126 4.82909C4.29004 4.98787 4.50538 5.07707 4.72993 5.07707C4.95448 5.07707 5.16983 4.98787 5.3286 4.82909C5.48738 4.67031 5.57658 4.45497 5.57658 4.23042C5.57658 4.00587 5.48738 3.79052 5.3286 3.63175L4.48242 2.78556C4.32364 2.62679 4.1083 2.53759 3.88375 2.53759C3.6592 2.53759 3.44385 2.62679 3.28508 2.78556C3.1263 2.94434 3.0371 3.15969 3.0371 3.38424C3.0371 3.60878 3.1263 3.82413 3.28508 3.98291L4.13126 4.82909ZM4.13126 17.1706L3.28508 18.0168C3.1263 18.1756 3.0371 18.391 3.0371 18.6155C3.0371 18.84 3.1263 19.0554 3.28508 19.2142C3.44385 19.373 3.6592 19.4622 3.88375 19.4622C4.1083 19.4622 4.32364 19.373 4.48242 19.2142L5.3286 18.368C5.40722 18.2894 5.46959 18.196 5.51214 18.0933C5.55468 17.9906 5.57658 17.8805 5.57658 17.7693C5.57658 17.6581 5.55468 17.548 5.51214 17.4453C5.46959 17.3426 5.40722 17.2493 5.3286 17.1706C5.24999 17.092 5.15665 17.0297 5.05393 16.9871C4.95121 16.9446 4.84111 16.9227 4.72993 16.9227C4.61875 16.9227 4.50865 16.9446 4.40593 16.9871C4.30321 17.0297 4.20988 17.092 4.13126 17.1706ZM18.2688 5.0766C18.38 5.07669 18.4901 5.05487 18.5928 5.01241C18.6955 4.96994 18.7889 4.90765 18.8675 4.82909L19.7137 3.98291C19.8725 3.82413 19.9617 3.60878 19.9617 3.38424C19.9617 3.15969 19.8725 2.94434 19.7137 2.78556C19.5549 2.62679 19.3396 2.53759 19.115 2.53759C18.8905 2.53759 18.6751 2.62679 18.5163 2.78556L17.6702 3.63175C17.5517 3.75009 17.471 3.90092 17.4383 4.06515C17.4056 4.22938 17.4223 4.39963 17.4864 4.55433C17.5505 4.70903 17.6591 4.84123 17.7984 4.93421C17.9376 5.02718 18.1014 5.07673 18.2688 5.0766ZM18.8675 17.1706C18.7087 17.0119 18.4934 16.9227 18.2688 16.9227C18.0443 16.9227 17.8289 17.0119 17.6702 17.1706C17.5114 17.3294 17.4222 17.5448 17.4222 17.7693C17.4222 17.9939 17.5114 18.2092 17.6702 18.368L18.5163 19.2142C18.595 19.2928 18.6883 19.3552 18.791 19.3977C18.8937 19.4403 19.0038 19.4622 19.115 19.4622C19.2262 19.4622 19.3363 19.4403 19.439 19.3977C19.5417 19.3552 19.6351 19.2928 19.7137 19.2142C19.7923 19.1356 19.8547 19.0422 19.8972 18.9395C19.9398 18.8368 19.9617 18.7267 19.9617 18.6155C19.9617 18.5043 19.9398 18.3942 19.8972 18.2915C19.8547 18.1888 19.7923 18.0954 19.7137 18.0168L18.8675 17.1706ZM2.19139 10.1537H1.3452C1.12078 10.1537 0.905554 10.2428 0.746864 10.4015C0.588174 10.5602 0.499023 10.7754 0.499023 10.9999C0.499023 11.2243 0.588174 11.4395 0.746864 11.5982C0.905554 11.7569 1.12078 11.8461 1.3452 11.8461H2.19139C2.41581 11.8461 2.63104 11.7569 2.78973 11.5982C2.94842 11.4395 3.03757 11.2243 3.03757 10.9999C3.03757 10.7754 2.94842 10.5602 2.78973 10.4015C2.63104 10.2428 2.41581 10.1537 2.19139 10.1537ZM11.4994 19.4617C11.275 19.4617 11.0597 19.5508 10.901 19.7095C10.7424 19.8682 10.6532 20.0834 10.6532 20.3079V21.154C10.6532 21.3785 10.7424 21.5937 10.901 21.7524C11.0597 21.9111 11.275 22.0002 11.4994 22.0002C11.7238 22.0002 11.939 21.9111 12.0977 21.7524C12.2564 21.5937 12.3456 21.3785 12.3456 21.154V20.3079C12.3456 20.0834 12.2564 19.8682 12.0977 19.7095C11.939 19.5508 11.7238 19.4617 11.4994 19.4617ZM21.6536 10.1537H20.8074C20.583 10.1537 20.3677 10.2428 20.209 10.4015C20.0503 10.5602 19.9612 10.7754 19.9612 10.9999C19.9612 11.2243 20.0503 11.4395 20.209 11.5982C20.3677 11.7569 20.583 11.8461 20.8074 11.8461H21.6536C21.878 11.8461 22.0932 11.7569 22.2519 11.5982C22.4106 11.4395 22.4997 11.2243 22.4997 10.9999C22.4997 10.7754 22.4106 10.5602 22.2519 10.4015C22.0932 10.2428 21.878 10.1537 21.6536 10.1537Z" fill="#ABADB7"/>
</g>
<defs>
<clipPath id="clip0_99_632">
<rect width="22" height="22" fill="white" transform="translate(0.5)"/>
</clipPath>
</defs>
</svg>
