<svg width="101" height="23" viewBox="0 0 101 23" fill="none" xmlns="http://www.w3.org/2000/svg">
<g clip-path="url(#clip0_47_6847)">
<path d="M3.14344 1.44824H0.5V17.657H9.08188L9.45525 15.3644H3.14344V1.44824Z" fill="#1B94D4"/>
<path d="M15.0458 5.125L10.2695 17.657H12.9404L14.1856 14.3867H18.5018L19.7238 17.657H22.6015L17.8747 5.125H15.0458ZM17.7936 12.1389H14.9634L16.3879 8.20368C16.6015 8.80235 16.7991 9.35685 16.9803 9.86658L17.6496 11.7324C17.7045 11.884 17.7527 12.0195 17.7936 12.1389Z" fill="#1B94D4"/>
<path d="M32.549 11.3906C32.3196 11.2181 32.0622 11.0736 31.7785 10.9578C31.9359 10.8677 32.0823 10.7674 32.2165 10.6588C32.5606 10.3741 32.8327 10.041 33.0242 9.66917C33.2195 9.29075 33.3183 8.88786 33.3183 8.47243C33.3183 7.75857 33.0785 7.12111 32.6063 6.57676C32.1463 6.04614 31.5283 5.66175 30.7572 5.42837C30.5852 5.38301 30.4211 5.34123 30.2673 5.30422C30.0922 5.26124 29.8885 5.2314 29.6615 5.21588C29.4492 5.20036 29.1936 5.18902 28.894 5.18126C28.5988 5.1741 28.2425 5.16992 27.824 5.16992H24.105V17.6572H28.4463C28.7885 17.6572 29.0917 17.6536 29.3565 17.6458C29.6267 17.6381 29.8738 17.6219 30.0898 17.5981C30.3021 17.5754 30.515 17.5432 30.7212 17.5026C30.9286 17.462 31.1519 17.4005 31.388 17.3175C32.1317 17.0525 32.7406 16.615 33.1969 16.0169C33.6599 15.4123 33.8948 14.7372 33.8948 14.0108C33.8948 13.5047 33.7771 13.0129 33.5452 12.5491C33.3122 12.0829 32.9742 11.6908 32.549 11.3906ZM30.4015 9.35342C30.2429 9.62619 30.0587 9.80108 29.8372 9.88882C29.6633 9.95806 29.293 10.0404 28.5158 10.0404H26.6557V7.41656H28.3078C28.6384 7.41656 28.9593 7.44163 29.2607 7.48998C29.5377 7.53474 29.7671 7.60696 29.9428 7.70426C30.1063 7.79558 30.2545 7.93465 30.3826 8.11789C30.5016 8.2886 30.5595 8.49571 30.5595 8.75117C30.5595 8.97142 30.5077 9.16899 30.4009 9.35283L30.4015 9.35342ZM26.6563 12.2889H28.5853C28.8776 12.2889 29.1844 12.3068 29.4992 12.3426C29.7945 12.3754 30.0453 12.4315 30.2441 12.5097C30.4937 12.607 30.7078 12.7652 30.8987 12.9944C31.072 13.2021 31.1599 13.4969 31.1599 13.8718C31.1599 14.163 31.0805 14.4298 30.917 14.6859C30.759 14.9342 30.5693 15.0983 30.3295 15.1915C29.9788 15.3359 29.376 15.4093 28.539 15.4093H26.6563V12.2895V12.2889Z" fill="#1B94D4"/>
<path d="M39.0585 12.2664H43.5535V10.0186H39.0353V7.3947H44.3728L44.7505 5.14746H36.4614V17.6568H44.8908V15.3415H39.0585V12.2664Z" fill="#1B94D4"/>
<path d="M50.2616 15.4089V5.14746H47.6646V17.6568H55.2069L55.5845 15.4089H50.2616Z" fill="#1B94D4"/>
<path d="M89.4703 5.13184L89.5435 11.4319C89.5435 11.8306 89.5551 12.2287 89.5789 12.6149C89.585 12.7145 89.5911 12.8118 89.5978 12.9067L89.4794 12.6901C89.2989 12.36 89.1049 12.0311 88.906 11.716L84.877 5.13184H82.1665V17.6412H84.8167L84.6946 11.2224C84.6837 10.6326 84.6715 10.1181 84.6574 9.67764C84.7489 9.84536 84.8435 10.0202 84.9411 10.2035C85.1363 10.5706 85.3407 10.915 85.5408 11.2164L89.5234 17.6412H92.0253V5.13184H89.4703Z" fill="#1B94D4"/>
<path d="M80.0563 12.9818C80.8931 9.51302 78.6973 6.03729 75.1518 5.21857C71.6062 4.39986 68.0537 6.54819 67.2169 10.017C66.38 13.4858 68.5759 16.9616 72.1214 17.7803C75.6669 18.599 79.2195 16.4506 80.0563 12.9818Z" fill="url(#paint0_linear_47_6847)"/>
<path d="M88.7459 23H70.7005C64.2191 23 58.9463 17.8412 58.9463 11.5C58.9463 5.15879 64.2191 0 70.7005 0H88.7459C95.2273 0 100.5 5.15879 100.5 11.5C100.5 17.8412 95.2273 23 88.7459 23ZM70.7005 1.84136C65.2569 1.84136 60.8284 6.17408 60.8284 11.5C60.8284 16.8259 65.2569 21.1586 70.7005 21.1586H88.7459C94.1895 21.1586 98.6181 16.8259 98.6181 11.5C98.6181 6.17408 94.1895 1.84136 88.7459 1.84136H70.7005Z" fill="url(#paint1_linear_47_6847)"/>
</g>
<defs>
<linearGradient id="paint0_linear_47_6847" x1="71.4768" y1="16.0323" x2="76.856" y2="4.24226" gradientUnits="userSpaceOnUse">
<stop stop-color="#E37C52"/>
<stop offset="1" stop-color="#DD684E"/>
</linearGradient>
<linearGradient id="paint1_linear_47_6847" x1="58.9457" y1="11.5" x2="100.5" y2="11.5" gradientUnits="userSpaceOnUse">
<stop stop-color="#E37C52"/>
<stop offset="1" stop-color="#DD684E"/>
</linearGradient>
<clipPath id="clip0_47_6847">
<rect width="100" height="23" fill="white" transform="translate(0.5)"/>
</clipPath>
</defs>
</svg>
