<svg width="24" height="24" viewBox="0 0 24 24" fill="none" xmlns="http://www.w3.org/2000/svg">
<path d="M4.8637 4.86321C5.21517 4.51174 5.78502 4.51174 6.13649 4.86321L12.0001 10.7268L17.8637 4.86321C18.2151 4.51174 18.785 4.51174 19.1364 4.86321C19.4879 5.21468 19.4879 5.78453 19.1365 6.13601L13.2729 11.9996L19.1365 17.8632C19.4879 18.2147 19.4879 18.7845 19.1364 19.136C18.785 19.4875 18.2151 19.4875 17.8637 19.136L12.0001 13.2724L6.13649 19.136C5.78502 19.4875 5.21517 19.4875 4.8637 19.136C4.51223 18.7845 4.51223 18.2147 4.8637 17.8632L10.7273 11.9996L4.8637 6.13601C4.51223 5.78453 4.51223 5.21468 4.8637 4.86321Z" fill="#171719"/>
</svg>
