<svg width="18" height="18" viewBox="0 0 18 18" fill="none" xmlns="http://www.w3.org/2000/svg">
<path fill-rule="evenodd" clip-rule="evenodd" d="M10.4226 3.93746V2.83496C10.4226 1.90292 9.66713 1.14746 8.73509 1.14746H5.32715C4.39511 1.14746 3.63965 1.90292 3.63965 2.83496V3.93746C3.63965 4.24796 3.89165 4.49996 4.20215 4.49996C4.51247 4.49996 4.76465 4.24796 4.76465 3.93746V2.83496C4.76465 2.52428 5.01647 2.27246 5.32697 2.27246H8.73509C9.04577 2.27246 9.29759 2.52428 9.29759 2.83496V3.93746C9.29759 4.24796 9.54977 4.49996 9.86009 4.49996C10.1706 4.49996 10.4226 4.24796 10.4226 3.93746Z" fill="#B1B1B1"/>
<path fill-rule="evenodd" clip-rule="evenodd" d="M14.6326 6.89957C13.9932 6.45101 13.2147 6.18767 12.375 6.18767C10.2019 6.18767 8.4375 7.95203 8.4375 10.1252C8.4375 12.2983 10.2019 14.0627 12.375 14.0627C14.5481 14.0627 16.3125 12.2983 16.3125 10.1252C16.3125 9.61397 16.2149 9.12545 16.0373 8.67725L13.2314 11.4831C13.0007 11.7139 12.6814 11.833 12.3561 11.8098C12.0308 11.7868 11.7315 11.6235 11.5358 11.3627L10.6499 10.1813C10.4636 9.93311 10.514 9.58013 10.7624 9.39383C11.0108 9.20771 11.3636 9.25811 11.5499 9.50651C11.5499 9.50651 12.0609 10.1876 12.4358 10.6877L15.453 7.67051L15.4528 7.67033L16.495 6.62813C16.7146 6.40853 16.7146 6.05213 16.495 5.83253C16.2756 5.61311 15.919 5.61311 15.6996 5.83253L14.6326 6.89957Z" fill="#B1B1B1"/>
<path fill-rule="evenodd" clip-rule="evenodd" d="M12.9375 14.8734C12.753 14.8952 12.5653 14.9062 12.375 14.9062C9.7362 14.9062 7.59366 12.7638 7.59366 10.125C7.59384 7.4862 9.7362 5.34366 12.375 5.34366C12.5653 5.34366 12.753 5.35482 12.9375 5.3766V5.0625C12.9375 4.13046 12.182 3.375 11.25 3.375H2.8125C1.88046 3.375 1.125 4.13046 1.125 5.0625V15.1875C1.125 16.1195 1.88046 16.875 2.8125 16.875H11.25C12.182 16.875 12.9375 16.1195 12.9375 15.1875V14.8734ZM3.375 14.0625H7.5258C7.8363 14.0625 8.0883 13.8105 8.0883 13.5C8.0883 13.1895 7.8363 12.9375 7.5258 12.9375H3.375C3.0645 12.9375 2.8125 13.1895 2.8125 13.5C2.8125 13.8105 3.0645 14.0625 3.375 14.0625ZM3.375 10.6875H6.11676C6.42726 10.6875 6.67926 10.4355 6.67926 10.125C6.67926 9.8145 6.42726 9.5625 6.11676 9.5625H3.375C3.0645 9.5625 2.8125 9.8145 2.8125 10.125C2.8125 10.4355 3.0645 10.6875 3.375 10.6875ZM3.375 7.3125H7.3125C7.623 7.3125 7.875 7.0605 7.875 6.75C7.875 6.4395 7.623 6.1875 7.3125 6.1875H3.375C3.0645 6.1875 2.8125 6.4395 2.8125 6.75C2.8125 7.0605 3.0645 7.3125 3.375 7.3125Z" fill="#B1B1B1"/>
</svg>
