<svg width="18" height="18" viewBox="0 0 18 18" fill="none" xmlns="http://www.w3.org/2000/svg">
<path fill-rule="evenodd" clip-rule="evenodd" d="M7.282 3H10.718C10.8978 2.99998 11.069 2.99997 11.2132 3.01149C11.3705 3.02406 11.5508 3.05337 11.7311 3.1432C11.9839 3.26916 12.1894 3.47015 12.3182 3.71737C12.4101 3.89368 12.4401 4.07009 12.4529 4.22388C12.4647 4.36492 12.4647 4.53229 12.4647 4.70815L12.4647 5.42021L13.126 5.42021C13.5007 5.4202 13.8197 5.4202 14.0816 5.44112C14.3568 5.46311 14.6245 5.51126 14.8804 5.63878C15.2662 5.83104 15.5799 6.13781 15.7765 6.51514C15.9069 6.76541 15.9561 7.0272 15.9786 7.29631C16 7.55244 16 7.86441 16 8.23079V13.1894C16 13.5558 16 13.8678 15.9786 14.1239C15.9561 14.393 15.9069 14.6548 15.7765 14.9051C15.5799 15.2824 15.2662 15.5892 14.8804 15.7814C14.6245 15.909 14.3568 15.9571 14.0816 15.9791C13.8197 16 13.5007 16 13.1261 16H4.87396C4.49933 16 4.18028 16 3.91837 15.9791C3.6432 15.9571 3.37551 15.909 3.1196 15.7814C2.73377 15.5892 2.42008 15.2824 2.22349 14.9051C2.0931 14.6548 2.04386 14.393 2.02138 14.1239C1.99998 13.8678 1.99999 13.5558 2 13.1894V8.23084C1.99999 7.86447 1.99998 7.55244 2.02138 7.29631C2.04386 7.0272 2.0931 6.76541 2.22349 6.51514C2.42008 6.13781 2.73377 5.83104 3.1196 5.63878C3.37551 5.51126 3.6432 5.46311 3.91837 5.44112C4.18029 5.4202 4.49931 5.4202 4.87396 5.42021L5.53536 5.42021L5.53536 4.70815C5.53534 4.53229 5.53532 4.36492 5.54711 4.22388C5.55996 4.07009 5.58992 3.89368 5.68179 3.71737C5.81059 3.47015 6.0161 3.26916 6.26889 3.1432C6.44917 3.05337 6.62956 3.02406 6.78681 3.01149C6.93103 2.99997 7.10217 2.99998 7.282 3ZM6.80801 5.42026H11.1918V4.31379C11.1918 4.2756 11.1602 4.24464 11.1211 4.24464H6.87871C6.83966 4.24464 6.80801 4.2756 6.80801 4.31379V5.42026ZM6.87872 8.53193C6.52727 8.53193 6.24236 8.81056 6.24236 9.15427C6.24236 9.49798 6.52727 9.77661 6.87872 9.77661H11.1211C11.4726 9.77661 11.7575 9.49798 11.7575 9.15427C11.7575 8.81056 11.4726 8.53193 11.1211 8.53193H6.87872Z" fill="#B1B1B1"/>
</svg>
