<svg width="23" height="22" viewBox="0 0 23 22" fill="none" xmlns="http://www.w3.org/2000/svg">
<path d="M20.3214 12.8591C19.7894 14.596 18.7232 16.121 17.2746 17.2168C16.0028 18.1743 14.4894 18.7582 12.9042 18.9031C11.319 19.048 9.72479 18.7481 8.30053 18.0371C6.87628 17.3261 5.67833 16.2321 4.84115 14.8779C4.00396 13.5238 3.56069 11.963 3.56108 10.3709C3.55535 8.51251 4.15935 6.70358 5.28042 5.2216C6.37604 3.77268 7.90063 2.70629 9.63724 2.1742C9.75169 2.13895 9.87359 2.13557 9.98982 2.16443C10.1061 2.1933 10.2122 2.2533 10.2969 2.33801C10.3816 2.42271 10.4416 2.5289 10.4704 2.64515C10.4993 2.76141 10.4959 2.88334 10.4607 2.99782C10.0809 4.2542 10.0491 5.59008 10.3686 6.86313C10.688 8.13618 11.3468 9.29869 12.2747 10.2268C13.2026 11.1549 14.3648 11.8138 15.6376 12.1333C16.9104 12.4529 18.2459 12.421 19.502 12.0412C19.6165 12.0059 19.7384 12.0026 19.8546 12.0314C19.9709 12.0603 20.077 12.1203 20.1617 12.205C20.2464 12.2897 20.3064 12.3959 20.3352 12.5122C20.3641 12.6284 20.3607 12.7503 20.3255 12.8648L20.3214 12.8591Z" fill="#ABADB7"/>
</svg>
