<svg width="24" height="24" viewBox="0 0 24 24" fill="none" xmlns="http://www.w3.org/2000/svg">
<path fill-rule="evenodd" clip-rule="evenodd" d="M8.26238 2.60205C7.45434 2.60204 6.79348 2.60203 6.2564 2.64591C5.70049 2.69133 5.19842 2.78822 4.72953 3.02713C3.9957 3.40103 3.39908 3.99766 3.02517 4.73149C2.78626 5.20038 2.68938 5.70246 2.64396 6.25837C2.60008 6.79544 2.60009 7.45629 2.6001 8.26433V15.7398C2.60009 16.5478 2.60008 17.2087 2.64396 17.7457C2.68938 18.3016 2.78626 18.8037 3.02517 19.2726C3.39908 20.0064 3.9957 20.6031 4.72953 20.977C5.19842 21.2159 5.70049 21.3128 6.2564 21.3582C6.79348 21.4021 7.45433 21.4021 8.26238 21.4021H15.7378C16.5458 21.4021 17.2067 21.4021 17.7437 21.3582C18.2996 21.3128 18.8017 21.2159 19.2706 20.977C20.0044 20.6031 20.6011 20.0064 20.975 19.2726C21.2139 18.8037 21.3108 18.3016 21.3562 17.7457C21.4001 17.2087 21.4001 16.5478 21.4 15.7398V8.26435C21.4001 7.4563 21.4001 6.79545 21.3562 6.25837C21.3108 5.70246 21.2139 5.20038 20.975 4.73149C20.6011 3.99766 20.0044 3.40103 19.2706 3.02713C18.8017 2.78822 18.2996 2.69133 17.7437 2.64591C17.2067 2.60203 16.5458 2.60204 15.7378 2.60205H8.26238ZM5.54671 4.63094C5.71956 4.54287 5.95838 4.47626 6.40298 4.43994C6.85809 4.40275 7.44516 4.40205 8.30008 4.40205H15.7001C16.555 4.40205 17.1421 4.40275 17.5972 4.43994C18.0418 4.47626 18.2806 4.54287 18.4534 4.63094C18.8486 4.83227 19.1698 5.15353 19.3712 5.54867C19.4592 5.72152 19.5258 5.96035 19.5622 6.40495C19.5993 6.86005 19.6 7.44712 19.6 8.30205V8.60049H4.40009V8.30205C4.40009 7.44712 4.40079 6.86005 4.43798 6.40495C4.4743 5.96035 4.54091 5.72152 4.62898 5.54867C4.83031 5.15353 5.15157 4.83227 5.54671 4.63094ZM4.40009 10.4005V15.7021C4.40009 16.557 4.40079 17.1441 4.43798 17.5992C4.4743 18.0438 4.54091 18.2826 4.62898 18.4554C4.83031 18.8506 5.15157 19.1718 5.54671 19.3732C5.71956 19.4612 5.95838 19.5278 6.40298 19.5642C6.85809 19.6014 7.44515 19.6021 8.30008 19.6021H8.59975V10.4005H4.40009ZM10.3997 19.6021H15.7001C16.555 19.6021 17.1421 19.6014 17.5972 19.5642C18.0418 19.5278 18.2806 19.4612 18.4534 19.3732C18.8486 19.1718 19.1698 18.8506 19.3712 18.4554C19.4592 18.2826 19.5258 18.0438 19.5622 17.5992C19.5993 17.1441 19.6 16.557 19.6 15.7021V10.4005H10.3997V19.6021Z" fill="#171719"/>
</svg>
