<svg width="18" height="18" viewBox="0 0 18 18" fill="none" xmlns="http://www.w3.org/2000/svg">
<path fill-rule="evenodd" clip-rule="evenodd" d="M9 2C5.13401 2 2 5.13401 2 9C2 12.866 5.13401 16 9 16C12.866 16 16 12.866 16 9C16 5.13401 12.866 2 9 2ZM8.6464 4.82787C8.99785 4.82787 9.28276 5.11278 9.28276 5.46423V9.08962L10.9194 10.7263C11.1679 10.9748 11.1679 11.3777 10.9194 11.6262C10.6709 11.8747 10.268 11.8747 10.0195 11.6262L8.19633 9.8031C8.06939 9.67616 8.00729 9.50893 8.01003 9.34258V5.46423C8.01003 5.11278 8.29494 4.82787 8.6464 4.82787Z" fill="#B1B1B1"/>
</svg>
