<svg width="24" height="24" viewBox="0 0 24 24" fill="none" xmlns="http://www.w3.org/2000/svg">
<path fill-rule="evenodd" clip-rule="evenodd" d="M8.26287 2.60205C7.45483 2.60204 6.79396 2.60203 6.25689 2.64591C5.70098 2.69133 5.1989 2.78822 4.73002 3.02713C3.99619 3.40103 3.39957 3.99766 3.02566 4.73149C2.78675 5.20038 2.68987 5.70246 2.64445 6.25837C2.60057 6.79544 2.60058 7.45629 2.60059 8.26433V15.7398C2.60058 16.5478 2.60057 17.2087 2.64445 17.7457C2.68987 18.3016 2.78675 18.8037 3.02566 19.2726C3.39957 20.0064 3.99619 20.6031 4.73002 20.977C5.1989 21.2159 5.70098 21.3128 6.25689 21.3582C6.79397 21.4021 7.45482 21.4021 8.26287 21.4021H15.7383C16.5463 21.4021 17.2071 21.4021 17.7442 21.3582C18.3001 21.3128 18.8022 21.2159 19.2711 20.977C20.0049 20.6031 20.6016 20.0064 20.9755 19.2726C21.2144 18.8037 21.3112 18.3016 21.3567 17.7457C21.4005 17.2087 21.4005 16.5478 21.4005 15.7398V8.26435C21.4005 7.4563 21.4005 6.79545 21.3567 6.25837C21.3112 5.70246 21.2144 5.20038 20.9755 4.73149C20.6016 3.99766 20.0049 3.40103 19.2711 3.02713C18.8022 2.78822 18.3001 2.69133 17.7442 2.64591C17.2072 2.60203 16.5463 2.60204 15.7383 2.60205H8.26287ZM5.5472 4.63094C5.72004 4.54287 5.95887 4.47626 6.40347 4.43994C6.85857 4.40275 7.44564 4.40205 8.30057 4.40205H15.7005C16.5555 4.40205 17.1425 4.40275 17.5976 4.43994C18.0422 4.47626 18.2811 4.54287 18.4539 4.63094C18.8491 4.83227 19.1703 5.15353 19.3717 5.54867C19.4597 5.72152 19.5263 5.96035 19.5627 6.40495C19.5998 6.86005 19.6005 7.44712 19.6005 8.30205V8.60049H4.40058V8.30205C4.40058 7.44712 4.40128 6.86005 4.43846 6.40495C4.47479 5.96035 4.5414 5.72152 4.62947 5.54867C4.8308 5.15353 5.15206 4.83227 5.5472 4.63094ZM4.40058 10.4005V15.7021C4.40058 16.557 4.40128 17.1441 4.43846 17.5992C4.47479 18.0438 4.5414 18.2826 4.62947 18.4554C4.8308 18.8506 5.15206 19.1718 5.5472 19.3732C5.72004 19.4612 5.95887 19.5278 6.40347 19.5642C6.85857 19.6014 7.44564 19.6021 8.30057 19.6021H8.60023V10.4005H4.40058ZM10.4002 19.6021H15.7005C16.5555 19.6021 17.1425 19.6014 17.5976 19.5642C18.0422 19.5278 18.2811 19.4612 18.4539 19.3732C18.8491 19.1718 19.1703 18.8506 19.3717 18.4554C19.4597 18.2826 19.5263 18.0438 19.5627 17.5992C19.5998 17.1441 19.6005 16.557 19.6005 15.7021V10.4005H10.4002V19.6021Z" fill="white"/>
</svg>
